# xmcd CD database file
#
# Track frame offsets:
#	150
#	11426
#	36828
#	67685
#	94068
#	108182
#	120139
#	129410
#	140575
#	161799
#	199224
#	233077
#	251158
#	274717
#
# Disc length: 3950 seconds
#
# Revision: 0
# Processed by: cddbd v1.5.2PL0 Copyright (c) Steve Scherf et al.
# Submitted via: CDex 1.70beta2
#
DISCID=b50f6c0e
DTITLE=Various Artist - NightDreaming
DYEAR=2006
DGENRE=Jazz
TTITLE0=Ella Fitzgerald - MANTECA
TTITLE1=Clarke-Boland Big Band - SPEEDY REEDS
TTITLE2=Luis Gasca - Motherless Child
TTITLE3=Herbie Hancock - Wiggle Waggle
TTITLE4=Aretha Franklin - Rock Stready
TTITLE5=Bobby Short - Jump for joy
TTITLE6=Chris Connor - Circus
TTITLE7=Jackie Paris - It's only a paper moon
TTITLE8=David Nweman - Hard Times
TTITLE9=Freddie Hubbard - The Black Angel
TTITLE10=Les McCann - What's going on
TTITLE11=Frances Wayne - Speak Low
TTITLE12=Tony Fruscella - Blue Serenade
TTITLE13=Roland Kirk - Loving You
EXTD=YEAR: 2006
EXTT0=
EXTT1=
EXTT2=
EXTT3=
EXTT4=
EXTT5=
EXTT6=
EXTT7=
EXTT8=
EXTT9=
EXTT10=
EXTT11=
EXTT12=
EXTT13=
PLAYORDER=
